HIERARCHY
ROOT joint_Root
{
	OFFSET 0.0 0.0 0.0
	CHANNELS 6 Xposition Yposition Zposition Zrotation Xrotation Yrotation 
	JOINT Hips
	{
		OFFSET 4.5925 91.4895 -427.239
		CHANNELS 6 Xposition Yposition Zposition Zrotation Xrotation Yrotation 
		JOINT Spine
		{
			OFFSET 15.7357 0.0 0.0
			CHANNELS 6 Xposition Yposition Zposition Zrotation Xrotation Yrotation 
			JOINT Chest
			{
				OFFSET 8.98455 -0.406207 0.0
				CHANNELS 6 Xposition Yposition Zposition Zrotation Xrotation Yrotation 
				JOINT Neck
				{
					OFFSET 16.3773 0.0 0.0
					CHANNELS 6 Xposition Yposition Zposition Zrotation Xrotation Yrotation 
					JOINT Head
					{
						OFFSET 6.45672 0.0 0.0
						CHANNELS 6 Xposition Yposition Zposition Zrotation Xrotation Yrotation 
						End Site
						{
							OFFSET 0.0 0.0 0.0
						}
					}
				}
				JOINT Shoulder_L
				{
					OFFSET 12.9942 -0.242716 4.98039
					CHANNELS 6 Xposition Yposition Zposition Zrotation Xrotation Yrotation 
					JOINT UpperArm_L
					{
						OFFSET 5.34809 0.0 0.0
						CHANNELS 6 Xposition Yposition Zposition Zrotation Xrotation Yrotation 
						JOINT LowerArm_L
						{
							OFFSET 24.3286 1.87007e-05 0.0
							CHANNELS 6 Xposition Yposition Zposition Zrotation Xrotation Yrotation 
							JOINT Hand_L
							{
								OFFSET 22.2916 0.0 0.0
								CHANNELS 6 Xposition Yposition Zposition Zrotation Xrotation Yrotation 
								End Site
								{
									OFFSET 0.0 0.0 0.0
								}
							}
						}
					}
				}
				JOINT Shoulder_R
				{
					OFFSET 12.9945 -0.242716 -4.98039
					CHANNELS 6 Xposition Yposition Zposition Zrotation Xrotation Yrotation 
					JOINT UpperArm_R
					{
						OFFSET -5.34813 0.0 0.0
						CHANNELS 6 Xposition Yposition Zposition Zrotation Xrotation Yrotation 
						JOINT LowerArm_R
						{
							OFFSET -24.3289 0.000322201 0.0
							CHANNELS 6 Xposition Yposition Zposition Zrotation Xrotation Yrotation 
							JOINT Hand_R
							{
								OFFSET -22.2915 -0.000108084 0.0
								CHANNELS 6 Xposition Yposition Zposition Zrotation Xrotation Yrotation 
								End Site
								{
									OFFSET 0.0 0.0 0.0
								}
							}
						}
					}
				}
			}
		}
		JOINT UpperLeg_L
		{
			OFFSET -2.19248 -6.46944 0.0
			CHANNELS 6 Xposition Yposition Zposition Zrotation Xrotation Yrotation 
			JOINT LowerLeg_L
			{
				OFFSET 39.0811 0.0 -1.23785e-05
				CHANNELS 6 Xposition Yposition Zposition Zrotation Xrotation Yrotation 
				JOINT Foot_L
				{
					OFFSET 40.9854 0.0 -1.26872e-05
					CHANNELS 6 Xposition Yposition Zposition Zrotation Xrotation Yrotation 
					JOINT Toes_L
					{
						OFFSET 11.7543 0.0 0.0
						CHANNELS 6 Xposition Yposition Zposition Zrotation Xrotation Yrotation 
						End Site
						{
							OFFSET 0.0 0.0 0.0
						}
					}
				}
			}
		}
		JOINT UpperLeg_R
		{
			OFFSET -2.19251 6.46944 0.0
			CHANNELS 6 Xposition Yposition Zposition Zrotation Xrotation Yrotation 
			JOINT LowerLeg_R
			{
				OFFSET -39.0811 -0.00228153 -0.0401928
				CHANNELS 6 Xposition Yposition Zposition Zrotation Xrotation Yrotation 
				JOINT Foot_R
				{
					OFFSET -40.9854 0.0 0.0
					CHANNELS 6 Xposition Yposition Zposition Zrotation Xrotation Yrotation 
					JOINT Toes_R
					{
						OFFSET -11.7543 0.0 0.0
						CHANNELS 6 Xposition Yposition Zposition Zrotation Xrotation Yrotation 
						End Site
						{
							OFFSET 0.0 0.0 0.0
						}
					}
				}
			}
		}
	}
}
MOTION
Frames:	6
Frame Time:	0.0333333
0.000000 0.000000 0.000000 0.000000 0.000000 -0.000000 1.588080 90.882500 1.402710 91.504700 -4.185350 9.914110 15.735700 0.000005 -0.000001 87.194500 82.592000 -88.926700 8.984550 -0.406207 -0.000000 7.024100 -0.711499 -3.417110 16.377300 -0.000001 -0.000001 9.549210 -0.439249 -2.195720 6.456720 -0.000001 -0.000000 -1.151320 0.938274 -0.732163 12.994200 -0.242716 4.980390 -92.207100 6.784610 -71.932400 5.348090 -0.000007 -0.000001 -63.236500 36.714500 -11.759600 24.328600 0.000019 0.000005 11.447600 25.469000 -25.215900 22.291600 -0.000001 0.000005 10.652100 5.289970 0.351731 12.994500 -0.242716 -4.980390 87.837000 10.691500 -78.492500 -5.348130 -0.000001 -0.000004 -64.335100 32.386400 -9.696470 -24.328900 0.000322 -0.000009 3.615640 9.062750 -21.864300 -22.291500 -0.000108 -0.000004 13.129300 5.421080 -3.635540 -2.192480 -6.469440 -0.000000 -178.335000 -13.647600 2.987280 39.081100 -0.000007 -0.000012 -0.124011 0.235499 27.770900 40.985400 -0.000006 -0.000013 2.419800 5.931540 -71.100400 11.754300 -0.000000 0.000003 -0.000261 -0.002317 -16.664200 -2.192510 6.469440 -0.000001 169.540000 20.057100 -176.949000 -39.081100 -0.002282 -0.040193 -0.146588 0.265562 29.441800 -40.985400 0.000008 0.000006 3.192630 14.315600 -71.998200 -11.754300 -0.000006 -0.000006 -0.001973 -0.028376 -17.727000
0.000000 0.000000 0.000000 0.000000 0.000000 -0.000000 1.665600 90.876100 1.291840 91.489800 -4.320180 10.065900 15.735700 0.000005 -0.000001 87.402400 82.556900 -89.181500 8.984550 -0.406207 -0.000000 7.097380 -0.661947 -3.513270 16.377300 -0.000001 -0.000001 9.900000 -0.279043 -2.382920 6.456720 -0.000001 -0.000000 -0.747724 1.174490 -1.196510 12.994200 -0.242716 4.980390 -92.200400 6.712710 -71.803900 5.348090 -0.000007 -0.000001 -63.332100 36.541300 -11.683900 24.328600 0.000019 0.000005 11.583000 25.853100 -25.174600 22.291600 -0.000001 0.000005 10.655600 5.290530 0.336373 12.994500 -0.242716 -4.980390 87.830000 10.635800 -78.398400 -5.348130 -0.000001 -0.000004 -63.765200 32.122800 -10.331000 -24.328900 0.000322 -0.000009 3.761000 9.232810 -22.284900 -22.291500 -0.000108 -0.000004 12.580700 5.421350 -3.644400 -2.192480 -6.469440 -0.000000 -178.340000 -13.718000 3.023210 39.081100 -0.000007 -0.000012 -0.124968 0.236301 27.872300 40.985400 -0.000006 -0.000013 2.464380 5.858370 -71.092700 11.754300 -0.000000 0.000003 -0.000247 -0.002209 -16.660400 -2.192510 6.469440 -0.000001 169.473000 19.982600 -176.936000 -39.081100 -0.002282 -0.040193 -0.155009 0.279653 29.514300 -40.985400 0.000008 0.000006 3.105420 14.397300 -71.912300 -11.754300 -0.000006 -0.000006 -0.002162 -0.030731 -17.822700
0.000000 0.000000 0.000000 0.000000 0.000000 -0.000000 1.757360 90.881000 1.184410 91.487200 -4.490280 10.292700 15.735700 0.000005 -0.000001 87.618000 82.500000 -89.435800 8.984550 -0.406207 -0.000000 7.214120 -0.612466 -3.593050 16.377300 -0.000001 -0.000001 10.285500 -0.075617 -2.618560 6.456720 -0.000001 -0.000000 -0.319423 1.396000 -1.696620 12.994200 -0.242716 4.980390 -92.187000 6.640200 -71.723600 5.348090 -0.000007 -0.000001 -63.457400 36.425000 -11.566800 24.328600 0.000019 0.000005 11.468700 25.611600 -25.142700 22.291600 -0.000001 0.000005 10.672100 5.289730 0.358564 12.994500 -0.242716 -4.980390 87.794700 10.652100 -78.231900 -5.348130 -0.000001 -0.000004 -62.711900 31.274400 -11.320500 -24.328900 0.000322 -0.000009 4.111600 9.552590 -23.425800 -22.291500 -0.000108 -0.000004 12.089200 5.417170 -3.504000 -2.192480 -6.469440 -0.000000 -178.343000 -13.874000 3.183160 39.081100 -0.000007 -0.000012 -0.122352 0.231184 27.889900 40.985400 -0.000006 -0.000013 2.521910 5.783050 -71.049300 11.754300 -0.000000 0.000003 -0.000229 -0.002076 -16.655600 -2.192510 6.469440 -0.000001 169.382000 19.850700 -176.830000 -39.081100 -0.002282 -0.040193 -0.152791 0.275452 29.539600 -40.985400 0.000008 0.000006 3.099170 14.510200 -71.828800 -11.754300 -0.000006 -0.000006 -0.002124 -0.030253 -17.803300
0.000000 0.000000 0.000000 0.000000 0.000000 -0.000000 1.864110 90.873600 1.038160 91.469700 -4.808360 10.475100 15.735700 0.000005 -0.000001 87.707000 82.449000 -89.555100 8.984550 -0.406207 -0.000000 7.317150 -0.594802 -3.654330 16.377300 -0.000001 -0.000001 10.661500 0.124708 -2.821720 6.456720 -0.000001 -0.000000 0.091979 1.696920 -2.305130 12.994200 -0.242716 4.980390 -92.175700 6.562050 -71.611000 5.348090 -0.000007 -0.000001 -63.575300 36.312700 -11.432500 24.328600 0.000019 0.000005 11.459400 25.536300 -25.184900 22.291600 -0.000001 0.000005 10.604900 5.289140 0.374823 12.994500 -0.242716 -4.980390 87.794400 10.577200 -78.150300 -5.348130 -0.000001 -0.000004 -61.431700 29.790400 -12.677700 -24.328900 0.000322 -0.000009 4.392810 9.360330 -25.287800 -22.291500 -0.000108 -0.000004 11.797700 5.415740 -3.456020 -2.192480 -6.469440 -0.000000 -178.345000 -14.040100 3.219150 39.081100 -0.000007 -0.000012 -0.118088 0.221981 28.011900 40.985400 -0.000006 -0.000013 2.569050 5.656110 -71.033600 11.754300 -0.000000 0.000003 -0.000253 -0.002252 -16.661900 -2.192510 6.469440 -0.000001 169.344000 19.636000 -176.889000 -39.081100 -0.002282 -0.040193 -0.160177 0.287313 29.639900 -40.985400 0.000008 0.000006 2.927640 14.664000 -71.675300 -11.754300 -0.000006 -0.000006 -0.002058 -0.029444 -17.770400
0.000000 0.000000 0.000000 0.000000 0.000000 -0.000000 1.981260 90.873900 0.893222 91.483100 -5.093290 10.669800 15.735700 0.000005 -0.000001 87.703000 82.401900 -89.584400 8.984550 -0.406207 -0.000000 7.411120 -0.600966 -3.719790 16.377300 -0.000001 -0.000001 11.116600 0.321770 -3.030890 6.456720 -0.000001 -0.000000 0.560295 1.951700 -2.923770 12.994200 -0.242716 4.980390 -92.157100 6.502020 -71.601500 5.348090 -0.000007 -0.000001 -63.655600 36.235800 -11.334200 24.328600 0.000019 0.000005 11.437500 25.550400 -25.130300 22.291600 -0.000001 0.000005 10.578500 5.291870 0.299049 12.994500 -0.242716 -4.980390 87.801100 10.416000 -78.009500 -5.348130 -0.000001 -0.000004 -59.957900 27.870000 -14.364700 -24.328900 0.000322 -0.000009 4.491660 8.595270 -27.732900 -22.291500 -0.000108 -0.000004 12.115000 5.423140 -3.704970 -2.192480 -6.469440 -0.000000 -178.413000 -14.166900 3.304510 39.081100 -0.000007 -0.000012 -0.115504 0.216708 28.057400 40.985400 -0.000006 -0.000013 2.615850 5.454560 -70.985400 11.754300 -0.000000 0.000003 -0.000249 -0.002224 -16.660900 -2.192510 6.469440 -0.000001 169.235000 19.440300 -176.885000 -39.081100 -0.002282 -0.040193 -0.164451 0.294212 29.691000 -40.985400 0.000008 0.000006 2.789860 14.865700 -71.529500 -11.754300 -0.000006 -0.000006 -0.002319 -0.032638 -17.900300
0.000000 0.000000 0.000000 0.000000 0.000000 -0.000000 2.109890 90.873400 0.726923 91.431700 -5.481650 10.857500 15.735700 0.000005 -0.000001 87.727000 82.373800 -89.624000 8.984550 -0.406207 -0.000000 7.467570 -0.597713 -3.751000 16.377300 -0.000001 -0.000001 11.705100 0.500764 -3.236050 6.456720 -0.000001 -0.000000 1.072280 2.218910 -3.571780 12.994200 -0.242716 4.980390 -92.153500 6.466780 -71.537100 5.348090 -0.000007 -0.000001 -63.618600 36.286900 -11.273300 24.328600 0.000019 0.000005 11.438600 25.636500 -25.063300 22.291600 -0.000001 0.000005 10.704500 5.292590 0.279103 12.994500 -0.242716 -4.980390 87.825100 10.195700 -77.890600 -5.348130 -0.000001 -0.000004 -58.400800 25.584600 -16.375600 -24.328900 0.000322 -0.000009 4.499910 7.617630 -30.703200 -22.291500 -0.000108 -0.000004 12.502300 5.424020 -3.735140 -2.192480 -6.469440 -0.000000 -178.364000 -14.472700 3.359660 39.081100 -0.000007 -0.000012 -0.113023 0.211151 28.159000 40.985400 -0.000006 -0.000013 2.684890 5.343760 -70.958400 11.754300 -0.000000 0.000003 -0.000239 -0.002150 -16.658200 -2.192510 6.469440 -0.000001 169.252000 19.187600 -176.958000 -39.081100 -0.002282 -0.040193 -0.164614 0.293676 29.760000 -40.985400 0.000008 0.000006 2.702790 15.028200 -71.357600 -11.754300 -0.000006 -0.000006 -0.002277 -0.032134 -17.879800
